<svg height="512pt" viewBox="-60 0 512 512" width="512pt" xmlns="http://www.w3.org/2000/svg"><path d="m55.898438 0c-30.824219 0-55.898438 25.074219-55.898438 55.898438v400.203124c0 30.824219 25.074219 55.898438 55.898438 55.898438h336.449218v-512zm0 30h306.449218v51.796875h-306.449218c-14.28125 0-25.898438-11.617187-25.898438-25.898437s11.617188-25.898438 25.898438-25.898438zm173.785156 81.796875h68.664062v91.324219l-34.332031-14.382813-34.332031 14.382813zm-199.683594 344.304687v-350.691406c7.746094 4.070313 16.554688 6.386719 25.898438 6.386719h17.117187v370.203125h-17.117187c-14.28125 0-25.898438-11.617188-25.898438-25.898438zm332.347656 25.898438h-259.332031v-370.203125h96.667969v136.417969l64.332031-26.949219 64.332031 26.949219v-136.417969h34zm0 0"/><path d="m168.347656 350.667969h129v30h-129zm0 0"/><path d="m168.347656 408.667969h129v30h-129zm0 0"/></svg>